# Blender v3.0.0 OBJ File: ''
# www.blender.org
mtllib axe.mtl
o Cylinder_Cylinder.001
v 0.000000 -2.022297 -17.450800
v 0.000000 20.373573 -17.450800
v 0.225830 -2.022297 -17.428556
v 0.225830 20.373573 -17.428556
v 0.442982 -2.022297 -17.362684
v 0.442982 20.373573 -17.362684
v 0.643110 -2.022297 -17.255714
v 0.643110 20.373573 -17.255714
v 0.818524 -2.022297 -17.111755
v 0.818524 20.373573 -17.111755
v 0.962482 -2.022297 -16.936342
v 0.962482 20.373573 -16.936342
v 1.069453 -2.022297 -16.736214
v 1.069453 20.373573 -16.736214
v 1.135325 -2.022297 -16.519062
v 1.135325 20.373573 -16.519062
v 1.157567 -2.022297 -16.293232
v 1.157567 20.373573 -16.293232
v 1.135325 -2.022297 -16.067402
v 1.135325 20.373573 -16.067402
v 1.069453 -2.022297 -15.850250
v 1.069453 20.373573 -15.850250
v 0.962482 -2.022297 -15.650122
v 0.962482 20.373573 -15.650122
v 0.818524 -2.022297 -15.474709
v 0.818524 20.373573 -15.474709
v 0.643110 -2.022297 -15.330750
v 0.643110 20.373573 -15.330750
v 0.442982 -2.022297 -15.223780
v 0.442982 20.373573 -15.223780
v 0.225830 -2.022297 -15.157907
v 0.225830 20.373573 -15.157907
v -0.000000 -2.022297 -15.135665
v -0.000000 20.373573 -15.135665
v -0.225830 -2.022297 -15.157907
v -0.225830 20.373573 -15.157907
v -0.442982 -2.022297 -15.223780
v -0.442982 20.373573 -15.223780
v -0.643110 -2.022297 -15.330750
v -0.643110 20.373573 -15.330750
v -0.818524 -2.022297 -15.474709
v -0.818524 20.373573 -15.474709
v -0.962482 -2.022297 -15.650122
v -0.962482 20.373573 -15.650122
v -1.069453 -2.022297 -15.850250
v -1.069453 20.373573 -15.850250
v -1.135325 -2.022297 -16.067402
v -1.135325 20.373573 -16.067402
v -1.157567 -2.022297 -16.293232
v -1.157567 20.373573 -16.293232
v -1.135325 -2.022297 -16.519062
v -1.135325 20.373573 -16.519062
v -1.069453 -2.022297 -16.736214
v -1.069453 20.373573 -16.736214
v -0.962482 -2.022297 -16.936342
v -0.962482 20.373573 -16.936342
v -0.818524 -2.022297 -17.111755
v -0.818524 20.373573 -17.111755
v -0.643110 -2.022297 -17.255714
v -0.643110 20.373573 -17.255714
v -0.442982 -2.022297 -17.362684
v -0.442982 20.373573 -17.362684
v -0.225830 -2.022297 -17.428556
v -0.225830 20.373573 -17.428556
vt 1.000000 0.500000
vt 1.000000 1.000000
vt 0.968750 1.000000
vt 0.968750 0.500000
vt 0.937500 1.000000
vt 0.937500 0.500000
vt 0.906250 1.000000
vt 0.906250 0.500000
vt 0.875000 1.000000
vt 0.875000 0.500000
vt 0.843750 1.000000
vt 0.843750 0.500000
vt 0.812500 1.000000
vt 0.812500 0.500000
vt 0.781250 1.000000
vt 0.781250 0.500000
vt 0.750000 1.000000
vt 0.750000 0.500000
vt 0.718750 1.000000
vt 0.718750 0.500000
vt 0.687500 1.000000
vt 0.687500 0.500000
vt 0.656250 1.000000
vt 0.656250 0.500000
vt 0.625000 1.000000
vt 0.625000 0.500000
vt 0.593750 1.000000
vt 0.593750 0.500000
vt 0.562500 1.000000
vt 0.562500 0.500000
vt 0.531250 1.000000
vt 0.531250 0.500000
vt 0.500000 1.000000
vt 0.500000 0.500000
vt 0.468750 1.000000
vt 0.468750 0.500000
vt 0.437500 1.000000
vt 0.437500 0.500000
vt 0.406250 1.000000
vt 0.406250 0.500000
vt 0.375000 1.000000
vt 0.375000 0.500000
vt 0.343750 1.000000
vt 0.343750 0.500000
vt 0.312500 1.000000
vt 0.312500 0.500000
vt 0.281250 1.000000
vt 0.281250 0.500000
vt 0.250000 1.000000
vt 0.250000 0.500000
vt 0.218750 1.000000
vt 0.218750 0.500000
vt 0.187500 1.000000
vt 0.187500 0.500000
vt 0.156250 1.000000
vt 0.156250 0.500000
vt 0.125000 1.000000
vt 0.125000 0.500000
vt 0.093750 1.000000
vt 0.093750 0.500000
vt 0.062500 1.000000
vt 0.062500 0.500000
vt 0.296822 0.485388
vt 0.250000 0.490000
vt 0.203178 0.485388
vt 0.158156 0.471731
vt 0.116663 0.449553
vt 0.080294 0.419706
vt 0.050447 0.383337
vt 0.028269 0.341844
vt 0.014612 0.296822
vt 0.010000 0.250000
vt 0.014612 0.203178
vt 0.028269 0.158156
vt 0.050447 0.116663
vt 0.080294 0.080294
vt 0.116663 0.050447
vt 0.158156 0.028269
vt 0.203178 0.014612
vt 0.250000 0.010000
vt 0.296822 0.014612
vt 0.341844 0.028269
vt 0.383337 0.050447
vt 0.419706 0.080294
vt 0.449553 0.116663
vt 0.471731 0.158156
vt 0.485388 0.203178
vt 0.490000 0.250000
vt 0.485388 0.296822
vt 0.471731 0.341844
vt 0.449553 0.383337
vt 0.419706 0.419706
vt 0.383337 0.449553
vt 0.341844 0.471731
vt 0.031250 1.000000
vt 0.031250 0.500000
vt 0.000000 1.000000
vt 0.000000 0.500000
vt 0.750000 0.490000
vt 0.796822 0.485388
vt 0.841844 0.471731
vt 0.883337 0.449553
vt 0.919706 0.419706
vt 0.949553 0.383337
vt 0.971731 0.341844
vt 0.985388 0.296822
vt 0.990000 0.250000
vt 0.985388 0.203178
vt 0.971731 0.158156
vt 0.949553 0.116663
vt 0.919706 0.080294
vt 0.883337 0.050447
vt 0.841844 0.028269
vt 0.796822 0.014612
vt 0.750000 0.010000
vt 0.703178 0.014612
vt 0.658156 0.028269
vt 0.616663 0.050447
vt 0.580294 0.080294
vt 0.550447 0.116663
vt 0.528269 0.158156
vt 0.514612 0.203178
vt 0.510000 0.250000
vt 0.514612 0.296822
vt 0.528269 0.341844
vt 0.550447 0.383337
vt 0.580294 0.419706
vt 0.616663 0.449553
vt 0.658156 0.471731
vt 0.703178 0.485388
vn 0.0980 0.0000 -0.9952
vn 0.2903 0.0000 -0.9569
vn 0.4714 0.0000 -0.8819
vn 0.6344 0.0000 -0.7730
vn 0.7730 0.0000 -0.6344
vn 0.8819 0.0000 -0.4714
vn 0.9569 0.0000 -0.2903
vn 0.9952 0.0000 -0.0980
vn 0.9952 0.0000 0.0980
vn 0.9569 0.0000 0.2903
vn 0.8819 0.0000 0.4714
vn 0.7730 0.0000 0.6344
vn 0.6344 0.0000 0.7730
vn 0.4714 0.0000 0.8819
vn 0.2903 0.0000 0.9569
vn 0.0980 0.0000 0.9952
vn -0.0980 0.0000 0.9952
vn -0.2903 0.0000 0.9569
vn -0.4714 0.0000 0.8819
vn -0.6344 0.0000 0.7730
vn -0.7730 0.0000 0.6344
vn -0.8819 0.0000 0.4714
vn -0.9569 0.0000 0.2903
vn -0.9952 0.0000 0.0980
vn -0.9952 0.0000 -0.0980
vn -0.9569 0.0000 -0.2903
vn -0.8819 0.0000 -0.4714
vn -0.7730 0.0000 -0.6344
vn -0.6344 0.0000 -0.7730
vn -0.4714 0.0000 -0.8819
vn 0.0000 1.0000 0.0000
vn -0.2903 0.0000 -0.9569
vn -0.0980 0.0000 -0.9952
vn 0.0000 -1.0000 0.0000
usemtl None
s off
f 1/1/1 2/2/1 4/3/1 3/4/1
f 3/4/2 4/3/2 6/5/2 5/6/2
f 5/6/3 6/5/3 8/7/3 7/8/3
f 7/8/4 8/7/4 10/9/4 9/10/4
f 9/10/5 10/9/5 12/11/5 11/12/5
f 11/12/6 12/11/6 14/13/6 13/14/6
f 13/14/7 14/13/7 16/15/7 15/16/7
f 15/16/8 16/15/8 18/17/8 17/18/8
f 17/18/9 18/17/9 20/19/9 19/20/9
f 19/20/10 20/19/10 22/21/10 21/22/10
f 21/22/11 22/21/11 24/23/11 23/24/11
f 23/24/12 24/23/12 26/25/12 25/26/12
f 25/26/13 26/25/13 28/27/13 27/28/13
f 27/28/14 28/27/14 30/29/14 29/30/14
f 29/30/15 30/29/15 32/31/15 31/32/15
f 31/32/16 32/31/16 34/33/16 33/34/16
f 33/34/17 34/33/17 36/35/17 35/36/17
f 35/36/18 36/35/18 38/37/18 37/38/18
f 37/38/19 38/37/19 40/39/19 39/40/19
f 39/40/20 40/39/20 42/41/20 41/42/20
f 41/42/21 42/41/21 44/43/21 43/44/21
f 43/44/22 44/43/22 46/45/22 45/46/22
f 45/46/23 46/45/23 48/47/23 47/48/23
f 47/48/24 48/47/24 50/49/24 49/50/24
f 49/50/25 50/49/25 52/51/25 51/52/25
f 51/52/26 52/51/26 54/53/26 53/54/26
f 53/54/27 54/53/27 56/55/27 55/56/27
f 55/56/28 56/55/28 58/57/28 57/58/28
f 57/58/29 58/57/29 60/59/29 59/60/29
f 59/60/30 60/59/30 62/61/30 61/62/30
f 4/63/31 2/64/31 64/65/31 62/66/31 60/67/31 58/68/31 56/69/31 54/70/31 52/71/31 50/72/31 48/73/31 46/74/31 44/75/31 42/76/31 40/77/31 38/78/31 36/79/31 34/80/31 32/81/31 30/82/31 28/83/31 26/84/31 24/85/31 22/86/31 20/87/31 18/88/31 16/89/31 14/90/31 12/91/31 10/92/31 8/93/31 6/94/31
f 61/62/32 62/61/32 64/95/32 63/96/32
f 63/96/33 64/95/33 2/97/33 1/98/33
f 1/99/34 3/100/34 5/101/34 7/102/34 9/103/34 11/104/34 13/105/34 15/106/34 17/107/34 19/108/34 21/109/34 23/110/34 25/111/34 27/112/34 29/113/34 31/114/34 33/115/34 35/116/34 37/117/34 39/118/34 41/119/34 43/120/34 45/121/34 47/122/34 49/123/34 51/124/34 53/125/34 55/126/34 57/127/34 59/128/34 61/129/34 63/130/34
o Cone
v -0.007019 -1.374191 -17.358036
v -0.202105 -1.375560 -17.338821
v -0.389693 -1.376877 -17.281916
v -0.562576 -1.378090 -17.189507
v -0.714109 -1.379154 -17.065144
v -0.838469 -1.380027 -16.913607
v -0.930876 -1.380676 -16.740719
v -0.987781 -1.381075 -16.553127
v -1.006995 -1.381210 -16.358036
v -0.987781 -1.381075 -16.162945
v -0.930876 -1.380676 -15.975352
v -0.838469 -1.380027 -15.802465
v -0.714109 -1.379154 -15.650929
v -0.562576 -1.378090 -15.526567
v -0.389693 -1.376877 -15.434156
v -0.202105 -1.375560 -15.377251
v -0.007019 -1.374191 -15.358036
v 0.188066 -1.372821 -15.377251
v 0.375655 -1.371504 -15.434156
v 0.548537 -1.370291 -15.526567
v 0.700070 -1.369227 -15.650929
v 0.824430 -1.368354 -15.802465
v 0.916837 -1.367706 -15.975352
v 0.973742 -1.367306 -16.162945
v 0.992956 -1.367171 -16.358036
v 0.973742 -1.367306 -16.553127
v 0.916837 -1.367706 -16.740719
v 0.824430 -1.368354 -16.913607
v 0.700070 -1.369227 -17.065144
v 0.548537 -1.370291 -17.189507
v 0.375655 -1.371504 -17.281916
v 0.188066 -1.372821 -17.338821
v 0.007019 -3.374141 -16.358036
vt 0.250000 0.490000
vt 0.250000 0.250000
vt 0.296822 0.485388
vt 0.341844 0.471731
vt 0.383337 0.449553
vt 0.419706 0.419706
vt 0.449553 0.383337
vt 0.471731 0.341844
vt 0.485388 0.296822
vt 0.490000 0.250000
vt 0.485388 0.203178
vt 0.471731 0.158156
vt 0.449553 0.116663
vt 0.419706 0.080294
vt 0.383337 0.050447
vt 0.341844 0.028269
vt 0.296822 0.014612
vt 0.250000 0.010000
vt 0.203178 0.014612
vt 0.158156 0.028269
vt 0.116663 0.050447
vt 0.080294 0.080294
vt 0.050447 0.116663
vt 0.028269 0.158156
vt 0.014612 0.203178
vt 0.010000 0.250000
vt 0.014612 0.296822
vt 0.028269 0.341844
vt 0.050447 0.383337
vt 0.080294 0.419706
vt 0.116663 0.449553
vt 0.158156 0.471731
vt 0.750000 0.490000
vt 0.796822 0.485388
vt 0.841844 0.471731
vt 0.883337 0.449553
vt 0.919706 0.419706
vt 0.949553 0.383337
vt 0.971731 0.341844
vt 0.985388 0.296822
vt 0.990000 0.250000
vt 0.985388 0.203178
vt 0.971731 0.158156
vt 0.949553 0.116663
vt 0.919706 0.080294
vt 0.883337 0.050447
vt 0.841844 0.028269
vt 0.796822 0.014612
vt 0.750000 0.010000
vt 0.703178 0.014612
vt 0.658156 0.028269
vt 0.616663 0.050447
vt 0.580294 0.080294
vt 0.550447 0.116663
vt 0.528269 0.158156
vt 0.514612 0.203178
vt 0.510000 0.250000
vt 0.514612 0.296822
vt 0.528269 0.341844
vt 0.550447 0.383337
vt 0.580294 0.419706
vt 0.616663 0.449553
vt 0.658156 0.471731
vt 0.703178 0.485388
vt 0.203178 0.485388
vn -0.0846 -0.4461 -0.8910
vn -0.2567 -0.4473 -0.8567
vn -0.4189 -0.4484 -0.7896
vn -0.5648 -0.4495 -0.6921
vn -0.6889 -0.4503 -0.5680
vn -0.7864 -0.4510 -0.4220
vn -0.8536 -0.4515 -0.2599
vn -0.8878 -0.4517 -0.0878
vn -0.8878 -0.4517 0.0878
vn -0.8536 -0.4515 0.2599
vn -0.7864 -0.4510 0.4220
vn -0.6889 -0.4503 0.5680
vn -0.5648 -0.4495 0.6921
vn -0.4189 -0.4484 0.7896
vn -0.2568 -0.4473 0.8567
vn -0.0846 -0.4461 0.8910
vn 0.0909 -0.4449 0.8910
vn 0.2630 -0.4437 0.8567
vn 0.4252 -0.4425 0.7896
vn 0.5711 -0.4415 0.6921
vn 0.6952 -0.4406 0.5680
vn 0.7927 -0.4399 0.4220
vn 0.8598 -0.4395 0.2599
vn 0.8941 -0.4392 0.0878
vn 0.8941 -0.4392 -0.0878
vn 0.8598 -0.4395 -0.2599
vn 0.7927 -0.4399 -0.4220
vn 0.6952 -0.4406 -0.5680
vn 0.5711 -0.4415 -0.6921
vn 0.4252 -0.4425 -0.7896
vn -0.0070 1.0000 -0.0000
vn 0.2630 -0.4437 -0.8567
vn 0.0909 -0.4449 -0.8910
usemtl None
s off
f 65/131/35 97/132/35 66/133/35
f 66/133/36 97/132/36 67/134/36
f 67/134/37 97/132/37 68/135/37
f 68/135/38 97/132/38 69/136/38
f 69/136/39 97/132/39 70/137/39
f 70/137/40 97/132/40 71/138/40
f 71/138/41 97/132/41 72/139/41
f 72/139/42 97/132/42 73/140/42
f 73/140/43 97/132/43 74/141/43
f 74/141/44 97/132/44 75/142/44
f 75/142/45 97/132/45 76/143/45
f 76/143/46 97/132/46 77/144/46
f 77/144/47 97/132/47 78/145/47
f 78/145/48 97/132/48 79/146/48
f 79/146/49 97/132/49 80/147/49
f 80/147/50 97/132/50 81/148/50
f 81/148/51 97/132/51 82/149/51
f 82/149/52 97/132/52 83/150/52
f 83/150/53 97/132/53 84/151/53
f 84/151/54 97/132/54 85/152/54
f 85/152/55 97/132/55 86/153/55
f 86/153/56 97/132/56 87/154/56
f 87/154/57 97/132/57 88/155/57
f 88/155/58 97/132/58 89/156/58
f 89/156/59 97/132/59 90/157/59
f 90/157/60 97/132/60 91/158/60
f 91/158/61 97/132/61 92/159/61
f 92/159/62 97/132/62 93/160/62
f 93/160/63 97/132/63 94/161/63
f 94/161/64 97/132/64 95/162/64
f 65/163/65 66/164/65 67/165/65 68/166/65 69/167/65 70/168/65 71/169/65 72/170/65 73/171/65 74/172/65 75/173/65 76/174/65 77/175/65 78/176/65 79/177/65 80/178/65 81/179/65 82/180/65 83/181/65 84/182/65 85/183/65 86/184/65 87/185/65 88/186/65 89/187/65 90/188/65 91/189/65 92/190/65 93/191/65 94/192/65 95/193/65 96/194/65
f 95/162/66 97/132/66 96/195/66
f 96/195/67 97/132/67 65/131/67
o Torus.003
v -0.172182 12.247946 -10.059830
v 0.623489 13.740576 -12.696629
v -0.646159 14.160479 -12.109254
v -0.466942 16.387312 -23.408047
v 1.266388 16.817133 -17.915287
v -1.056125 16.765860 -16.023060
v -0.027209 21.507233 -9.498607
v 0.942046 19.829149 -12.680127
v -0.702303 19.687923 -12.803288
vt 0.666667 0.666667
vt 1.000000 0.666667
vt 1.000000 1.000000
vt 0.666667 1.000000
vt 0.666667 0.000000
vt 1.000000 0.000000
vt 1.000000 0.333333
vt 0.666667 0.333333
vt 0.000000 0.666667
vt 0.333333 0.666667
vt 0.333333 1.000000
vt 0.000000 1.000000
vt 0.000000 0.000000
vt 0.333333 0.000000
vt 0.333333 0.333333
vt 0.000000 0.333333
vn 0.7407 -0.6308 -0.2313
vn 0.4157 0.7675 0.4881
vn -0.9573 -0.2803 -0.0704
vn 0.6061 0.7308 -0.3141
vn 0.2835 -0.7854 0.5502
vn -0.9083 0.3933 -0.1426
vn 0.9558 -0.0398 0.2912
vn -0.1621 -0.0538 -0.9853
vn -0.9777 0.0078 0.2100
usemtl None
s off
f 98/196/68 101/197/68 102/198/68 99/199/68
f 99/200/69 102/201/69 103/202/69 100/203/69
f 100/203/70 103/202/70 101/197/70 98/196/70
f 101/204/71 104/205/71 105/206/71 102/207/71
f 102/208/72 105/209/72 106/210/72 103/211/72
f 103/211/73 106/210/73 104/205/73 101/204/73
f 104/205/74 98/196/74 99/199/74 105/206/74
f 105/209/75 99/200/75 100/203/75 106/210/75
f 106/210/76 100/203/76 98/196/76 104/205/76
